#N canvas 245 23 1280 687 10;
#X obj 315 440 dac~ 1 2;
#X msg 265 245 1;
#X obj 264 224 loadbang;
#X obj 263 317 metro;
#X obj 265 267 t i b;
#X obj 263 347 random 127;
#X obj 267 378 mtof;
#X msg 395 250 1;
#X obj 394 229 loadbang;
#X obj 393 322 metro;
#X obj 395 272 t i b;
#X obj 393 352 random 127;
#X obj 397 383 mtof;
#X obj 329 198 bng 15 250 50 0 empty empty empty 17 7 0 10 -262144
-1 -1;
#X obj 316 464 pddp/dsp;
#X obj 283 410 osc~;
#X obj 394 407 osc~;
#X obj 326 175 metro 4000;
#X msg 325 152 1;
#X obj 322 129 loadbang;
#X obj 292 291 random 250;
#X obj 422 296 random 250;
#X obj 382 153 random 8000;
#X text 214 496 Tiago Morais MOrgado: PureData Patches Collection:
;
#N canvas 0 22 450 300 (subpatch) 0;
#X array \$0-array 1000 float 0;
#X coords 0 1 999 -1 160 100 1 0 0;
#X restore 711 459 graph;
#X obj 711 569 table \$0-array2;
#X msg 536 517 start 0;
#X obj 562 450 tgl 15 0 empty empty empty 17 7 0 10 -262144 -1 -1 1
1;
#X obj 571 502 bng 15 250 50 0 empty empty empty 17 7 0 10 -262144
-1 -1;
#X obj 553 477 metro 50;
#X obj 513 553 tabwrite~ \$0-array;
#X obj 560 365 loadbang;
#X msg 561 401 1;
#X obj 374 430 *~ 0.3;
#X obj 252 439 *~ 0.3;
#X connect 1 0 4 0;
#X connect 2 0 1 0;
#X connect 3 0 5 0;
#X connect 4 0 3 0;
#X connect 4 1 20 0;
#X connect 5 0 6 0;
#X connect 6 0 15 0;
#X connect 7 0 10 0;
#X connect 8 0 7 0;
#X connect 9 0 11 0;
#X connect 10 0 9 0;
#X connect 10 1 21 0;
#X connect 11 0 12 0;
#X connect 12 0 16 0;
#X connect 13 0 2 0;
#X connect 13 0 8 0;
#X connect 13 0 22 0;
#X connect 15 0 34 0;
#X connect 16 0 33 0;
#X connect 17 0 13 0;
#X connect 18 0 17 0;
#X connect 19 0 18 0;
#X connect 20 0 3 1;
#X connect 21 0 9 1;
#X connect 22 0 17 1;
#X connect 26 0 30 0;
#X connect 27 0 29 0;
#X connect 29 0 26 0;
#X connect 29 0 28 0;
#X connect 31 0 32 0;
#X connect 32 0 27 0;
#X connect 33 0 0 1;
#X connect 33 0 30 0;
#X connect 34 0 0 0;
#X connect 34 0 30 0;
