#N canvas 0 23 1280 687 10;
#X obj 354 -64 dac~ 1 2;
#X obj 340 -121 osc~ 33;
#X obj 413 -120 osc~ 99;
#X obj 263 -88 *~ 1000;
#X obj 498 -75 *~ 1000;
#X obj 217 -111 osc~ 0.33;
#X obj 503 -126 osc~ 0.99;
#X obj 212 -175 osc~ 0.01;
#X obj 214 -147 *~ 1000;
#X obj 211 -227 osc~ 0.01;
#X obj 307 -220 osc~ 0.012;
#X obj 204 -198 *~;
#X obj 407 -96 *~;
#X obj 461 19 pddp/dsp;
#X obj 343 -87 *~;
#X obj 280 -300 osc~ 33;
#X obj 353 -299 osc~ 99;
#X obj 203 -267 *~ 1000;
#X obj 438 -254 *~ 1000;
#X obj 157 -290 osc~ 0.33;
#X obj 443 -305 osc~ 0.99;
#X obj 152 -354 osc~ 0.01;
#X obj 154 -326 *~ 1000;
#X obj 144 -377 *~;
#X obj 348 -275 *~;
#X obj 283 -266 *~;
#X obj 143 -422 osc~ 0.01;
#X obj 241 -402 osc~ 0.012;
#X connect 1 0 14 0;
#X connect 2 0 12 0;
#X connect 2 0 14 1;
#X connect 3 0 2 0;
#X connect 4 0 1 0;
#X connect 5 0 3 0;
#X connect 5 0 6 0;
#X connect 5 0 14 0;
#X connect 5 0 14 1;
#X connect 6 0 4 0;
#X connect 6 0 12 0;
#X connect 6 0 12 1;
#X connect 6 0 3 0;
#X connect 7 0 8 0;
#X connect 7 0 3 0;
#X connect 7 0 14 1;
#X connect 8 0 5 0;
#X connect 8 0 1 0;
#X connect 9 0 11 0;
#X connect 9 0 11 1;
#X connect 9 0 6 0;
#X connect 9 0 3 0;
#X connect 9 0 14 1;
#X connect 9 0 4 0;
#X connect 9 0 2 0;
#X connect 10 0 9 0;
#X connect 10 0 11 0;
#X connect 10 0 3 0;
#X connect 10 0 4 0;
#X connect 10 0 6 0;
#X connect 11 0 7 0;
#X connect 11 0 4 0;
#X connect 11 0 3 0;
#X connect 11 0 12 0;
#X connect 11 0 12 1;
#X connect 11 0 14 0;
#X connect 12 0 0 1;
#X connect 12 0 4 0;
#X connect 14 0 0 0;
#X connect 15 0 25 0;
#X connect 16 0 24 0;
#X connect 16 0 25 1;
#X connect 16 0 8 0;
#X connect 17 0 16 0;
#X connect 18 0 15 0;
#X connect 19 0 17 0;
#X connect 19 0 20 0;
#X connect 19 0 25 0;
#X connect 19 0 25 1;
#X connect 19 0 2 0;
#X connect 19 0 1 0;
#X connect 19 0 14 0;
#X connect 20 0 18 0;
#X connect 20 0 24 0;
#X connect 20 0 24 1;
#X connect 20 0 17 0;
#X connect 20 0 10 0;
#X connect 20 0 11 0;
#X connect 20 0 7 0;
#X connect 20 0 14 0;
#X connect 20 0 14 1;
#X connect 21 0 22 0;
#X connect 21 0 17 0;
#X connect 21 0 25 1;
#X connect 21 0 2 0;
#X connect 21 0 12 1;
#X connect 21 0 14 0;
#X connect 22 0 20 0;
#X connect 22 0 15 0;
#X connect 22 0 5 0;
#X connect 23 0 21 0;
#X connect 23 0 18 0;
#X connect 23 0 17 0;
#X connect 23 0 24 0;
#X connect 23 0 24 1;
#X connect 23 0 25 0;
#X connect 23 0 6 0;
#X connect 24 0 18 0;
#X connect 24 0 10 0;
#X connect 24 0 12 0;
#X connect 25 0 9 0;
#X connect 26 0 23 0;
#X connect 26 0 23 1;
#X connect 26 0 20 0;
#X connect 26 0 17 0;
#X connect 26 0 25 1;
#X connect 26 0 18 0;
#X connect 26 0 16 0;
#X connect 26 0 10 0;
#X connect 26 0 14 1;
#X connect 27 0 23 0;
#X connect 27 0 17 0;
#X connect 27 0 18 0;
#X connect 27 0 20 0;
#X connect 27 0 12 0;
#X connect 27 0 12 1;
