#N canvas 0 23 1280 687 10;
#X obj 242 261 osc~;
#X obj 241 239 line~ 1 50;
#X obj 242 196 mtof;
#X obj 242 176 random 127;
#X obj 242 154 metro 10000;
#X obj 240 112 loadbang;
#X msg 241 133 1;
#X obj 576 677 pddp/dsp;
#X msg 241 218 \$1 10000;
#X obj 337 261 osc~;
#X obj 336 239 line~ 1 50;
#X obj 337 196 mtof;
#X obj 337 176 random 127;
#X obj 337 154 metro 10000;
#X obj 335 112 loadbang;
#X msg 336 133 1;
#X msg 336 218 \$1 10000;
#X obj 444 263 osc~;
#X obj 443 241 line~ 1 50;
#X obj 444 198 mtof;
#X obj 444 178 random 127;
#X obj 444 156 metro 10000;
#X obj 442 114 loadbang;
#X msg 443 135 1;
#X msg 443 220 \$1 10000;
#X obj 551 264 osc~;
#X obj 550 242 line~ 1 50;
#X obj 551 199 mtof;
#X obj 551 179 random 127;
#X obj 551 157 metro 10000;
#X obj 549 115 loadbang;
#X msg 550 136 1;
#X msg 550 221 \$1 10000;
#X obj 657 265 osc~;
#X obj 656 243 line~ 1 50;
#X obj 657 200 mtof;
#X obj 657 180 random 127;
#X obj 657 158 metro 10000;
#X obj 655 116 loadbang;
#X msg 656 137 1;
#X msg 656 222 \$1 10000;
#X obj 752 265 osc~;
#X obj 751 243 line~ 1 50;
#X obj 752 200 mtof;
#X obj 752 180 random 127;
#X obj 752 158 metro 10000;
#X obj 750 116 loadbang;
#X msg 751 137 1;
#X msg 751 222 \$1 10000;
#X obj 859 267 osc~;
#X obj 858 245 line~ 1 50;
#X obj 859 202 mtof;
#X obj 859 182 random 127;
#X obj 859 160 metro 10000;
#X obj 857 118 loadbang;
#X msg 858 139 1;
#X msg 858 224 \$1 10000;
#X obj 966 268 osc~;
#X obj 965 246 line~ 1 50;
#X obj 966 203 mtof;
#X obj 966 183 random 127;
#X obj 966 161 metro 10000;
#X obj 964 119 loadbang;
#X msg 965 140 1;
#X msg 965 225 \$1 10000;
#X obj 1061 266 osc~;
#X obj 1060 244 line~ 1 50;
#X obj 1061 201 mtof;
#X obj 1061 181 random 127;
#X obj 1061 159 metro 10000;
#X obj 1059 117 loadbang;
#X msg 1060 138 1;
#X msg 1060 223 \$1 10000;
#X obj 1168 267 osc~;
#X obj 1167 245 line~ 1 50;
#X obj 1168 202 mtof;
#X obj 1168 182 random 127;
#X obj 1168 160 metro 10000;
#X obj 1166 118 loadbang;
#X msg 1167 139 1;
#X msg 1167 224 \$1 10000;
#X obj 657 74 bng 15 250 50 0 empty empty empty 17 7 0 10 -262144 -1
-1;
#X obj 652 42 loadbang;
#X obj 1016 537 osc~;
#X obj 1015 515 line~ 1 50;
#X obj 1016 472 mtof;
#X obj 1016 430 metro 10000;
#X obj 1014 388 loadbang;
#X msg 1015 409 1;
#X msg 1015 494 \$1 10000;
#X obj 1016 452 random 12.7;
#X obj 566 410 *~;
#X obj 1262 251 osc~;
#X obj 1261 229 line~ 1 50;
#X obj 1262 186 mtof;
#X obj 1262 166 random 127;
#X obj 1262 144 metro 10000;
#X obj 1260 102 loadbang;
#X msg 1261 123 1;
#X msg 1261 208 \$1 10000;
#X obj 1357 251 osc~;
#X obj 1356 229 line~ 1 50;
#X obj 1357 186 mtof;
#X obj 1357 166 random 127;
#X obj 1357 144 metro 10000;
#X obj 1355 102 loadbang;
#X msg 1356 123 1;
#X msg 1356 208 \$1 10000;
#X obj 1464 253 osc~;
#X obj 1463 231 line~ 1 50;
#X obj 1464 188 mtof;
#X obj 1464 168 random 127;
#X obj 1464 146 metro 10000;
#X obj 1462 104 loadbang;
#X msg 1463 125 1;
#X msg 1463 210 \$1 10000;
#X obj 1571 254 osc~;
#X obj 1570 232 line~ 1 50;
#X obj 1571 189 mtof;
#X obj 1571 169 random 127;
#X obj 1571 147 metro 10000;
#X obj 1569 105 loadbang;
#X msg 1570 126 1;
#X msg 1570 211 \$1 10000;
#X obj 1677 255 osc~;
#X obj 1676 233 line~ 1 50;
#X obj 1677 190 mtof;
#X obj 1677 170 random 127;
#X obj 1677 148 metro 10000;
#X obj 1675 106 loadbang;
#X msg 1676 127 1;
#X msg 1676 212 \$1 10000;
#X obj 1772 255 osc~;
#X obj 1771 233 line~ 1 50;
#X obj 1772 190 mtof;
#X obj 1772 170 random 127;
#X obj 1772 148 metro 10000;
#X obj 1770 106 loadbang;
#X msg 1771 127 1;
#X msg 1771 212 \$1 10000;
#X obj 1879 257 osc~;
#X obj 1878 235 line~ 1 50;
#X obj 1879 192 mtof;
#X obj 1879 172 random 127;
#X obj 1879 150 metro 10000;
#X obj 1877 108 loadbang;
#X msg 1878 129 1;
#X msg 1878 214 \$1 10000;
#X obj 1986 258 osc~;
#X obj 1985 236 line~ 1 50;
#X obj 1986 193 mtof;
#X obj 1986 173 random 127;
#X obj 1986 151 metro 10000;
#X obj 1984 109 loadbang;
#X msg 1985 130 1;
#X msg 1985 215 \$1 10000;
#X obj 2081 256 osc~;
#X obj 2080 234 line~ 1 50;
#X obj 2081 191 mtof;
#X obj 2081 171 random 127;
#X obj 2081 149 metro 10000;
#X obj 2079 107 loadbang;
#X msg 2080 128 1;
#X msg 2080 213 \$1 10000;
#X obj 2188 257 osc~;
#X obj 2187 235 line~ 1 50;
#X obj 2188 192 mtof;
#X obj 2188 172 random 127;
#X obj 2188 150 metro 10000;
#X obj 2186 108 loadbang;
#X msg 2187 129 1;
#X msg 2187 214 \$1 10000;
#X obj 1677 64 bng 15 250 50 0 empty empty empty 17 7 0 10 -262144
-1 -1;
#X obj 1672 32 loadbang;
#X obj 2036 527 osc~;
#X obj 2035 505 line~ 1 50;
#X obj 2036 462 mtof;
#X obj 2036 420 metro 10000;
#X obj 2034 378 loadbang;
#X msg 2035 399 1;
#X msg 2035 484 \$1 10000;
#X obj 2036 442 random 12.7;
#X obj 1586 400 *~;
#X obj 1772 46 bng 15 250 50 0 empty empty empty 17 7 0 10 -262144
-1 -1;
#X obj 1278 910 osc~;
#X obj 1277 888 line~ 1 50;
#X obj 1278 845 mtof;
#X obj 1278 825 random 127;
#X obj 1278 803 metro 10000;
#X obj 1276 761 loadbang;
#X msg 1277 782 1;
#X msg 1277 867 \$1 10000;
#X obj 1373 910 osc~;
#X obj 1372 888 line~ 1 50;
#X obj 1373 845 mtof;
#X obj 1373 825 random 127;
#X obj 1373 803 metro 10000;
#X obj 1371 761 loadbang;
#X msg 1372 782 1;
#X msg 1372 867 \$1 10000;
#X obj 1480 912 osc~;
#X obj 1479 890 line~ 1 50;
#X obj 1480 847 mtof;
#X obj 1480 827 random 127;
#X obj 1480 805 metro 10000;
#X obj 1478 763 loadbang;
#X msg 1479 784 1;
#X msg 1479 869 \$1 10000;
#X obj 1587 913 osc~;
#X obj 1586 891 line~ 1 50;
#X obj 1587 848 mtof;
#X obj 1587 828 random 127;
#X obj 1587 806 metro 10000;
#X obj 1585 764 loadbang;
#X msg 1586 785 1;
#X msg 1586 870 \$1 10000;
#X obj 1693 914 osc~;
#X obj 1692 892 line~ 1 50;
#X obj 1693 849 mtof;
#X obj 1693 829 random 127;
#X obj 1693 807 metro 10000;
#X obj 1691 765 loadbang;
#X msg 1692 786 1;
#X msg 1692 871 \$1 10000;
#X obj 1788 914 osc~;
#X obj 1787 892 line~ 1 50;
#X obj 1788 849 mtof;
#X obj 1788 829 random 127;
#X obj 1788 807 metro 10000;
#X obj 1786 765 loadbang;
#X msg 1787 786 1;
#X msg 1787 871 \$1 10000;
#X obj 1895 916 osc~;
#X obj 1894 894 line~ 1 50;
#X obj 1895 851 mtof;
#X obj 1895 831 random 127;
#X obj 1895 809 metro 10000;
#X obj 1893 767 loadbang;
#X msg 1894 788 1;
#X msg 1894 873 \$1 10000;
#X obj 2002 917 osc~;
#X obj 2001 895 line~ 1 50;
#X obj 2002 852 mtof;
#X obj 2002 832 random 127;
#X obj 2002 810 metro 10000;
#X obj 2000 768 loadbang;
#X msg 2001 789 1;
#X msg 2001 874 \$1 10000;
#X obj 2097 915 osc~;
#X obj 2096 893 line~ 1 50;
#X obj 2097 850 mtof;
#X obj 2097 830 random 127;
#X obj 2097 808 metro 10000;
#X obj 2095 766 loadbang;
#X msg 2096 787 1;
#X msg 2096 872 \$1 10000;
#X obj 2204 916 osc~;
#X obj 2203 894 line~ 1 50;
#X obj 2204 851 mtof;
#X obj 2204 831 random 127;
#X obj 2204 809 metro 10000;
#X obj 2202 767 loadbang;
#X msg 2203 788 1;
#X msg 2203 873 \$1 10000;
#X obj 1693 723 bng 15 250 50 0 empty empty empty 17 7 0 10 -262144
-1 -1;
#X obj 1688 691 loadbang;
#X obj 2052 1186 osc~;
#X obj 2051 1164 line~ 1 50;
#X obj 2052 1121 mtof;
#X obj 2052 1079 metro 10000;
#X obj 2050 1037 loadbang;
#X msg 2051 1058 1;
#X msg 2051 1143 \$1 10000;
#X obj 2052 1101 random 12.7;
#X obj 1595 950 *~;
#X obj 1788 705 bng 15 250 50 0 empty empty empty 17 7 0 10 -262144
-1 -1;
#X obj 1259 1427 osc~;
#X obj 1258 1405 line~ 1 50;
#X obj 1259 1362 mtof;
#X obj 1259 1342 random 127;
#X obj 1259 1320 metro 10000;
#X obj 1257 1278 loadbang;
#X msg 1258 1299 1;
#X msg 1258 1384 \$1 10000;
#X obj 1354 1427 osc~;
#X obj 1353 1405 line~ 1 50;
#X obj 1354 1362 mtof;
#X obj 1354 1342 random 127;
#X obj 1354 1320 metro 10000;
#X obj 1352 1278 loadbang;
#X msg 1353 1299 1;
#X msg 1353 1384 \$1 10000;
#X obj 1461 1429 osc~;
#X obj 1460 1407 line~ 1 50;
#X obj 1461 1364 mtof;
#X obj 1461 1344 random 127;
#X obj 1461 1322 metro 10000;
#X obj 1459 1280 loadbang;
#X msg 1460 1301 1;
#X msg 1460 1386 \$1 10000;
#X obj 1568 1430 osc~;
#X obj 1567 1408 line~ 1 50;
#X obj 1568 1365 mtof;
#X obj 1568 1345 random 127;
#X obj 1568 1323 metro 10000;
#X obj 1566 1281 loadbang;
#X msg 1567 1302 1;
#X msg 1567 1387 \$1 10000;
#X obj 1674 1431 osc~;
#X obj 1673 1409 line~ 1 50;
#X obj 1674 1366 mtof;
#X obj 1674 1346 random 127;
#X obj 1674 1324 metro 10000;
#X obj 1672 1282 loadbang;
#X msg 1673 1303 1;
#X msg 1673 1388 \$1 10000;
#X obj 1769 1431 osc~;
#X obj 1768 1409 line~ 1 50;
#X obj 1769 1366 mtof;
#X obj 1769 1346 random 127;
#X obj 1769 1324 metro 10000;
#X obj 1767 1282 loadbang;
#X msg 1768 1303 1;
#X msg 1768 1388 \$1 10000;
#X obj 1876 1433 osc~;
#X obj 1875 1411 line~ 1 50;
#X obj 1876 1368 mtof;
#X obj 1876 1348 random 127;
#X obj 1876 1326 metro 10000;
#X obj 1874 1284 loadbang;
#X msg 1875 1305 1;
#X msg 1875 1390 \$1 10000;
#X obj 1983 1434 osc~;
#X obj 1982 1412 line~ 1 50;
#X obj 1983 1369 mtof;
#X obj 1983 1349 random 127;
#X obj 1983 1327 metro 10000;
#X obj 1981 1285 loadbang;
#X msg 1982 1306 1;
#X msg 1982 1391 \$1 10000;
#X obj 2078 1432 osc~;
#X obj 2077 1410 line~ 1 50;
#X obj 2078 1367 mtof;
#X obj 2078 1347 random 127;
#X obj 2078 1325 metro 10000;
#X obj 2076 1283 loadbang;
#X msg 2077 1304 1;
#X msg 2077 1389 \$1 10000;
#X obj 2185 1433 osc~;
#X obj 2184 1411 line~ 1 50;
#X obj 2185 1368 mtof;
#X obj 2185 1348 random 127;
#X obj 2185 1326 metro 10000;
#X obj 2183 1284 loadbang;
#X msg 2184 1305 1;
#X msg 2184 1390 \$1 10000;
#X obj 1674 1240 bng 15 250 50 0 empty empty empty 17 7 0 10 -262144
-1 -1;
#X obj 1669 1208 loadbang;
#X obj 2033 1703 osc~;
#X obj 2032 1681 line~ 1 50;
#X obj 2033 1638 mtof;
#X obj 2033 1596 metro 10000;
#X obj 2031 1554 loadbang;
#X msg 2032 1575 1;
#X msg 2032 1660 \$1 10000;
#X obj 2033 1618 random 12.7;
#X obj 1583 1576 *~;
#X obj 1769 1222 bng 15 250 50 0 empty empty empty 17 7 0 10 -262144
-1 -1;
#X obj 2029 1728 *~ 0.02;
#X obj 2048 1211 *~ 0.02;
#X obj 2032 552 *~ 0.02;
#X obj 1012 562 *~ 0.02;
#X obj 556 466 dac~ 1 2;
#X obj 1580 432 dac~ 1 2;
#X obj 1600 986 dac~ 1 2;
#X obj 1580 1636 dac~ 1 2;
#N canvas 0 22 450 300 (subpatch) 0;
#X array \$0-array 1000 float 0;
#X coords 0 1 999 -1 160 100 1 0 0;
#X restore 417 540 graph;
#X obj 417 650 table \$0-array2;
#X msg 242 598 start 0;
#X obj 268 531 tgl 15 0 empty empty empty 17 7 0 10 -262144 -1 -1 1
1;
#X obj 277 583 bng 15 250 50 0 empty empty empty 17 7 0 10 -262144
-1 -1;
#X obj 259 558 metro 50;
#X obj 219 634 tabwrite~ \$0-array;
#X obj 266 446 loadbang;
#X msg 267 482 1;
#X connect 0 0 91 0;
#X connect 1 0 0 0;
#X connect 2 0 8 0;
#X connect 3 0 2 0;
#X connect 4 0 3 0;
#X connect 5 0 6 0;
#X connect 6 0 4 0;
#X connect 8 0 1 0;
#X connect 9 0 91 0;
#X connect 10 0 9 0;
#X connect 11 0 16 0;
#X connect 12 0 11 0;
#X connect 13 0 12 0;
#X connect 14 0 15 0;
#X connect 15 0 13 0;
#X connect 16 0 10 0;
#X connect 17 0 91 0;
#X connect 18 0 17 0;
#X connect 19 0 24 0;
#X connect 20 0 19 0;
#X connect 21 0 20 0;
#X connect 22 0 23 0;
#X connect 23 0 21 0;
#X connect 24 0 18 0;
#X connect 25 0 91 0;
#X connect 26 0 25 0;
#X connect 27 0 32 0;
#X connect 28 0 27 0;
#X connect 29 0 28 0;
#X connect 30 0 31 0;
#X connect 31 0 29 0;
#X connect 32 0 26 0;
#X connect 33 0 91 0;
#X connect 34 0 33 0;
#X connect 35 0 40 0;
#X connect 36 0 35 0;
#X connect 37 0 36 0;
#X connect 38 0 39 0;
#X connect 39 0 37 0;
#X connect 40 0 34 0;
#X connect 41 0 91 0;
#X connect 42 0 41 0;
#X connect 43 0 48 0;
#X connect 44 0 43 0;
#X connect 45 0 44 0;
#X connect 46 0 47 0;
#X connect 47 0 45 0;
#X connect 48 0 42 0;
#X connect 49 0 91 0;
#X connect 50 0 49 0;
#X connect 51 0 56 0;
#X connect 52 0 51 0;
#X connect 53 0 52 0;
#X connect 54 0 55 0;
#X connect 55 0 53 0;
#X connect 56 0 50 0;
#X connect 57 0 91 0;
#X connect 58 0 57 0;
#X connect 59 0 64 0;
#X connect 60 0 59 0;
#X connect 61 0 60 0;
#X connect 62 0 63 0;
#X connect 63 0 61 0;
#X connect 64 0 58 0;
#X connect 65 0 91 0;
#X connect 66 0 65 0;
#X connect 67 0 72 0;
#X connect 68 0 67 0;
#X connect 69 0 68 0;
#X connect 70 0 71 0;
#X connect 71 0 69 0;
#X connect 72 0 66 0;
#X connect 73 0 91 0;
#X connect 74 0 73 0;
#X connect 75 0 80 0;
#X connect 76 0 75 0;
#X connect 77 0 76 0;
#X connect 78 0 79 0;
#X connect 79 0 77 0;
#X connect 80 0 74 0;
#X connect 81 0 5 0;
#X connect 81 0 14 0;
#X connect 81 0 22 0;
#X connect 81 0 30 0;
#X connect 81 0 38 0;
#X connect 81 0 46 0;
#X connect 81 0 54 0;
#X connect 81 0 62 0;
#X connect 81 0 78 0;
#X connect 81 0 87 0;
#X connect 82 0 81 0;
#X connect 83 0 371 0;
#X connect 84 0 83 0;
#X connect 85 0 89 0;
#X connect 86 0 90 0;
#X connect 87 0 88 0;
#X connect 88 0 86 0;
#X connect 89 0 84 0;
#X connect 90 0 85 0;
#X connect 91 0 372 1;
#X connect 91 0 382 0;
#X connect 92 0 182 0;
#X connect 93 0 92 0;
#X connect 94 0 99 0;
#X connect 95 0 94 0;
#X connect 96 0 95 0;
#X connect 97 0 98 0;
#X connect 98 0 96 0;
#X connect 99 0 93 0;
#X connect 100 0 182 0;
#X connect 101 0 100 0;
#X connect 102 0 107 0;
#X connect 103 0 102 0;
#X connect 104 0 103 0;
#X connect 105 0 106 0;
#X connect 106 0 104 0;
#X connect 107 0 101 0;
#X connect 108 0 182 0;
#X connect 109 0 108 0;
#X connect 110 0 115 0;
#X connect 111 0 110 0;
#X connect 112 0 111 0;
#X connect 113 0 114 0;
#X connect 114 0 112 0;
#X connect 115 0 109 0;
#X connect 116 0 182 0;
#X connect 117 0 116 0;
#X connect 118 0 123 0;
#X connect 119 0 118 0;
#X connect 120 0 119 0;
#X connect 121 0 122 0;
#X connect 122 0 120 0;
#X connect 123 0 117 0;
#X connect 124 0 182 0;
#X connect 125 0 124 0;
#X connect 126 0 131 0;
#X connect 127 0 126 0;
#X connect 128 0 127 0;
#X connect 129 0 130 0;
#X connect 130 0 128 0;
#X connect 131 0 125 0;
#X connect 132 0 182 0;
#X connect 133 0 132 0;
#X connect 134 0 139 0;
#X connect 135 0 134 0;
#X connect 136 0 135 0;
#X connect 137 0 138 0;
#X connect 138 0 136 0;
#X connect 139 0 133 0;
#X connect 140 0 182 0;
#X connect 141 0 140 0;
#X connect 142 0 147 0;
#X connect 143 0 142 0;
#X connect 144 0 143 0;
#X connect 145 0 146 0;
#X connect 146 0 144 0;
#X connect 147 0 141 0;
#X connect 148 0 182 0;
#X connect 149 0 148 0;
#X connect 150 0 155 0;
#X connect 151 0 150 0;
#X connect 152 0 151 0;
#X connect 153 0 154 0;
#X connect 154 0 152 0;
#X connect 155 0 149 0;
#X connect 156 0 182 0;
#X connect 157 0 156 0;
#X connect 158 0 163 0;
#X connect 159 0 158 0;
#X connect 160 0 159 0;
#X connect 161 0 162 0;
#X connect 162 0 160 0;
#X connect 163 0 157 0;
#X connect 164 0 182 0;
#X connect 165 0 164 0;
#X connect 166 0 171 0;
#X connect 167 0 166 0;
#X connect 168 0 167 0;
#X connect 169 0 170 0;
#X connect 170 0 168 0;
#X connect 171 0 165 0;
#X connect 172 0 97 0;
#X connect 172 0 105 0;
#X connect 172 0 113 0;
#X connect 172 0 121 0;
#X connect 172 0 129 0;
#X connect 172 0 137 0;
#X connect 172 0 145 0;
#X connect 172 0 153 0;
#X connect 172 0 169 0;
#X connect 172 0 178 0;
#X connect 173 0 172 0;
#X connect 174 0 370 0;
#X connect 175 0 174 0;
#X connect 176 0 180 0;
#X connect 177 0 181 0;
#X connect 178 0 179 0;
#X connect 179 0 177 0;
#X connect 180 0 175 0;
#X connect 181 0 176 0;
#X connect 182 0 373 0;
#X connect 182 0 382 0;
#X connect 183 0 173 0;
#X connect 184 0 274 0;
#X connect 185 0 184 0;
#X connect 186 0 191 0;
#X connect 187 0 186 0;
#X connect 188 0 187 0;
#X connect 189 0 190 0;
#X connect 190 0 188 0;
#X connect 191 0 185 0;
#X connect 192 0 274 0;
#X connect 193 0 192 0;
#X connect 194 0 199 0;
#X connect 195 0 194 0;
#X connect 196 0 195 0;
#X connect 197 0 198 0;
#X connect 198 0 196 0;
#X connect 199 0 193 0;
#X connect 200 0 274 0;
#X connect 201 0 200 0;
#X connect 202 0 207 0;
#X connect 203 0 202 0;
#X connect 204 0 203 0;
#X connect 205 0 206 0;
#X connect 206 0 204 0;
#X connect 207 0 201 0;
#X connect 208 0 274 0;
#X connect 209 0 208 0;
#X connect 210 0 215 0;
#X connect 211 0 210 0;
#X connect 212 0 211 0;
#X connect 213 0 214 0;
#X connect 214 0 212 0;
#X connect 215 0 209 0;
#X connect 216 0 274 0;
#X connect 217 0 216 0;
#X connect 218 0 223 0;
#X connect 219 0 218 0;
#X connect 220 0 219 0;
#X connect 221 0 222 0;
#X connect 222 0 220 0;
#X connect 223 0 217 0;
#X connect 224 0 274 0;
#X connect 225 0 224 0;
#X connect 226 0 231 0;
#X connect 227 0 226 0;
#X connect 228 0 227 0;
#X connect 229 0 230 0;
#X connect 230 0 228 0;
#X connect 231 0 225 0;
#X connect 232 0 274 0;
#X connect 233 0 232 0;
#X connect 234 0 239 0;
#X connect 235 0 234 0;
#X connect 236 0 235 0;
#X connect 237 0 238 0;
#X connect 238 0 236 0;
#X connect 239 0 233 0;
#X connect 240 0 274 0;
#X connect 241 0 240 0;
#X connect 242 0 247 0;
#X connect 243 0 242 0;
#X connect 244 0 243 0;
#X connect 245 0 246 0;
#X connect 246 0 244 0;
#X connect 247 0 241 0;
#X connect 248 0 274 0;
#X connect 249 0 248 0;
#X connect 250 0 255 0;
#X connect 251 0 250 0;
#X connect 252 0 251 0;
#X connect 253 0 254 0;
#X connect 254 0 252 0;
#X connect 255 0 249 0;
#X connect 256 0 274 0;
#X connect 257 0 256 0;
#X connect 258 0 263 0;
#X connect 259 0 258 0;
#X connect 260 0 259 0;
#X connect 261 0 262 0;
#X connect 262 0 260 0;
#X connect 263 0 257 0;
#X connect 264 0 189 0;
#X connect 264 0 197 0;
#X connect 264 0 205 0;
#X connect 264 0 213 0;
#X connect 264 0 221 0;
#X connect 264 0 229 0;
#X connect 264 0 237 0;
#X connect 264 0 245 0;
#X connect 264 0 261 0;
#X connect 264 0 270 0;
#X connect 265 0 264 0;
#X connect 266 0 369 0;
#X connect 267 0 266 0;
#X connect 268 0 272 0;
#X connect 269 0 273 0;
#X connect 270 0 271 0;
#X connect 271 0 269 0;
#X connect 272 0 267 0;
#X connect 273 0 268 0;
#X connect 274 0 374 0;
#X connect 274 0 382 0;
#X connect 275 0 265 0;
#X connect 276 0 366 0;
#X connect 277 0 276 0;
#X connect 278 0 283 0;
#X connect 279 0 278 0;
#X connect 280 0 279 0;
#X connect 281 0 282 0;
#X connect 282 0 280 0;
#X connect 283 0 277 0;
#X connect 284 0 366 0;
#X connect 285 0 284 0;
#X connect 286 0 291 0;
#X connect 287 0 286 0;
#X connect 288 0 287 0;
#X connect 289 0 290 0;
#X connect 290 0 288 0;
#X connect 291 0 285 0;
#X connect 292 0 366 0;
#X connect 293 0 292 0;
#X connect 294 0 299 0;
#X connect 295 0 294 0;
#X connect 296 0 295 0;
#X connect 297 0 298 0;
#X connect 298 0 296 0;
#X connect 299 0 293 0;
#X connect 300 0 366 0;
#X connect 301 0 300 0;
#X connect 302 0 307 0;
#X connect 303 0 302 0;
#X connect 304 0 303 0;
#X connect 305 0 306 0;
#X connect 306 0 304 0;
#X connect 307 0 301 0;
#X connect 308 0 366 0;
#X connect 309 0 308 0;
#X connect 310 0 315 0;
#X connect 311 0 310 0;
#X connect 312 0 311 0;
#X connect 313 0 314 0;
#X connect 314 0 312 0;
#X connect 315 0 309 0;
#X connect 316 0 366 0;
#X connect 317 0 316 0;
#X connect 318 0 323 0;
#X connect 319 0 318 0;
#X connect 320 0 319 0;
#X connect 321 0 322 0;
#X connect 322 0 320 0;
#X connect 323 0 317 0;
#X connect 324 0 366 0;
#X connect 325 0 324 0;
#X connect 326 0 331 0;
#X connect 327 0 326 0;
#X connect 328 0 327 0;
#X connect 329 0 330 0;
#X connect 330 0 328 0;
#X connect 331 0 325 0;
#X connect 332 0 366 0;
#X connect 333 0 332 0;
#X connect 334 0 339 0;
#X connect 335 0 334 0;
#X connect 336 0 335 0;
#X connect 337 0 338 0;
#X connect 338 0 336 0;
#X connect 339 0 333 0;
#X connect 340 0 366 0;
#X connect 341 0 340 0;
#X connect 342 0 347 0;
#X connect 343 0 342 0;
#X connect 344 0 343 0;
#X connect 345 0 346 0;
#X connect 346 0 344 0;
#X connect 347 0 341 0;
#X connect 348 0 366 0;
#X connect 349 0 348 0;
#X connect 350 0 355 0;
#X connect 351 0 350 0;
#X connect 352 0 351 0;
#X connect 353 0 354 0;
#X connect 354 0 352 0;
#X connect 355 0 349 0;
#X connect 356 0 281 0;
#X connect 356 0 289 0;
#X connect 356 0 297 0;
#X connect 356 0 305 0;
#X connect 356 0 313 0;
#X connect 356 0 321 0;
#X connect 356 0 329 0;
#X connect 356 0 337 0;
#X connect 356 0 353 0;
#X connect 356 0 362 0;
#X connect 357 0 356 0;
#X connect 358 0 368 0;
#X connect 359 0 358 0;
#X connect 360 0 364 0;
#X connect 361 0 365 0;
#X connect 362 0 363 0;
#X connect 363 0 361 0;
#X connect 364 0 359 0;
#X connect 365 0 360 0;
#X connect 366 0 375 1;
#X connect 366 0 382 0;
#X connect 367 0 357 0;
#X connect 368 0 366 1;
#X connect 369 0 274 1;
#X connect 370 0 182 1;
#X connect 371 0 91 1;
#X connect 378 0 382 0;
#X connect 379 0 381 0;
#X connect 381 0 378 0;
#X connect 381 0 380 0;
#X connect 383 0 384 0;
#X connect 384 0 379 0;
