#N canvas 0 60 1280 687 10;
#X obj 252 271 osc~;
#X obj 251 249 line~ 1 50;
#X obj 252 206 mtof;
#X obj 252 186 random 127;
#X msg 251 228 \$1 10000;
#X obj 347 271 osc~;
#X obj 346 249 line~ 1 50;
#X obj 347 206 mtof;
#X obj 347 186 random 127;
#X msg 346 228 \$1 10000;
#X obj 454 273 osc~;
#X obj 453 251 line~ 1 50;
#X obj 454 208 mtof;
#X obj 454 188 random 127;
#X msg 453 230 \$1 10000;
#X obj 561 274 osc~;
#X obj 560 252 line~ 1 50;
#X obj 561 209 mtof;
#X obj 561 189 random 127;
#X msg 560 231 \$1 10000;
#X obj 667 275 osc~;
#X obj 666 253 line~ 1 50;
#X obj 667 210 mtof;
#X obj 667 190 random 127;
#X msg 666 232 \$1 10000;
#X obj 762 275 osc~;
#X obj 761 253 line~ 1 50;
#X obj 762 210 mtof;
#X obj 762 190 random 127;
#X msg 761 232 \$1 10000;
#X obj 869 277 osc~;
#X obj 868 255 line~ 1 50;
#X obj 869 212 mtof;
#X obj 869 192 random 127;
#X msg 868 234 \$1 10000;
#X obj 976 278 osc~;
#X obj 975 256 line~ 1 50;
#X obj 976 213 mtof;
#X obj 976 193 random 127;
#X msg 975 235 \$1 10000;
#X obj 1071 276 osc~;
#X obj 1070 254 line~ 1 50;
#X obj 1071 211 mtof;
#X obj 1071 191 random 127;
#X msg 1070 233 \$1 10000;
#X obj 1178 277 osc~;
#X obj 1177 255 line~ 1 50;
#X obj 1178 212 mtof;
#X obj 1178 192 random 127;
#X msg 1177 234 \$1 10000;
#X obj 754 440 osc~;
#X obj 753 418 line~ 1 50;
#X obj 754 375 mtof;
#X msg 753 397 \$1 10000;
#X obj 754 355 random 12.7;
#X obj 566 338 *~;
#X obj 754 459 *~ 0.02;
#X obj 556 394 dac~ 1 2;
#X obj 511 27 key;
#X floatatom 509 54 5 0 0 0 - - -;
#X obj 504 89 t b i;
#X obj 817 335 / 10;
#N canvas 0 22 450 300 (subpatch) 0;
#X array \$0-array 1000 float 0;
#X coords 0 1 999 -1 160 100 1 0 0;
#X restore 407 530 graph;
#X obj 407 640 table \$0-array2;
#X msg 232 588 start 0;
#X obj 258 521 tgl 15 0 empty empty empty 17 7 0 10 -262144 -1 -1 1
1;
#X obj 267 573 bng 15 250 50 0 empty empty empty 17 7 0 10 -262144
-1 -1;
#X obj 249 548 metro 50;
#X obj 209 624 tabwrite~ \$0-array;
#X obj 256 436 loadbang;
#X msg 257 472 1;
#X connect 0 0 55 0;
#X connect 1 0 0 0;
#X connect 2 0 4 0;
#X connect 3 0 2 0;
#X connect 4 0 1 0;
#X connect 5 0 55 0;
#X connect 6 0 5 0;
#X connect 7 0 9 0;
#X connect 8 0 7 0;
#X connect 9 0 6 0;
#X connect 10 0 55 0;
#X connect 11 0 10 0;
#X connect 12 0 14 0;
#X connect 13 0 12 0;
#X connect 14 0 11 0;
#X connect 15 0 55 0;
#X connect 16 0 15 0;
#X connect 17 0 19 0;
#X connect 18 0 17 0;
#X connect 19 0 16 0;
#X connect 20 0 55 0;
#X connect 21 0 20 0;
#X connect 22 0 24 0;
#X connect 23 0 22 0;
#X connect 24 0 21 0;
#X connect 25 0 55 0;
#X connect 26 0 25 0;
#X connect 27 0 29 0;
#X connect 28 0 27 0;
#X connect 29 0 26 0;
#X connect 30 0 55 0;
#X connect 31 0 30 0;
#X connect 32 0 34 0;
#X connect 33 0 32 0;
#X connect 34 0 31 0;
#X connect 35 0 55 0;
#X connect 36 0 35 0;
#X connect 37 0 39 0;
#X connect 38 0 37 0;
#X connect 39 0 36 0;
#X connect 40 0 55 0;
#X connect 41 0 40 0;
#X connect 42 0 44 0;
#X connect 43 0 42 0;
#X connect 44 0 41 0;
#X connect 45 0 55 0;
#X connect 46 0 45 0;
#X connect 47 0 49 0;
#X connect 48 0 47 0;
#X connect 49 0 46 0;
#X connect 50 0 56 0;
#X connect 51 0 50 0;
#X connect 52 0 53 0;
#X connect 53 0 51 0;
#X connect 54 0 52 0;
#X connect 55 0 57 1;
#X connect 55 0 57 0;
#X connect 55 0 68 0;
#X connect 56 0 55 1;
#X connect 58 0 59 0;
#X connect 59 0 60 0;
#X connect 60 0 3 0;
#X connect 60 0 8 0;
#X connect 60 0 13 0;
#X connect 60 0 18 0;
#X connect 60 0 23 0;
#X connect 60 0 28 0;
#X connect 60 0 33 0;
#X connect 60 0 38 0;
#X connect 60 0 43 0;
#X connect 60 0 48 0;
#X connect 60 0 54 0;
#X connect 60 1 3 1;
#X connect 60 1 8 1;
#X connect 60 1 13 1;
#X connect 60 1 18 1;
#X connect 60 1 23 1;
#X connect 60 1 28 1;
#X connect 60 1 33 1;
#X connect 60 1 38 1;
#X connect 60 1 43 1;
#X connect 60 1 48 1;
#X connect 60 1 61 0;
#X connect 61 0 54 1;
#X connect 64 0 68 0;
#X connect 65 0 67 0;
#X connect 67 0 64 0;
#X connect 67 0 66 0;
#X connect 69 0 70 0;
#X connect 70 0 65 0;
