#N canvas 0 23 1280 687 10;
#X obj 544 448 dac~ 1 2;
#X msg 492 229 1;
#X obj 491 208 loadbang;
#X obj 490 301 metro;
#X obj 492 251 t i b;
#X obj 490 331 random 127;
#X obj 494 362 mtof;
#X msg 607 233 1;
#X obj 606 212 loadbang;
#X obj 605 305 metro;
#X obj 607 255 t i b;
#X obj 605 335 random 127;
#X obj 609 366 mtof;
#X obj 556 190 bng 15 250 50 0 empty empty empty 17 7 0 10 -262144
-1 -1;
#X obj 545 472 pddp/dsp;
#X obj 508 393 osc~;
#X obj 606 390 osc~;
#X obj 553 167 metro 4000;
#X msg 552 144 1;
#X obj 549 121 loadbang;
#X obj 609 145 random 8000;
#X text 443 504 Tiago Morais MOrgado: PureData Patches Collection:
;
#X obj 634 279 random 2500;
#X obj 519 275 random 2500;
#X obj 802 204 random 10;
#X obj 801 226 sel 0;
#X obj 802 249 random 10000;
#X obj 800 273 int;
#X obj 515 425 *~;
#X obj 548 424 *~;
#X obj 618 417 *~;
#X obj 651 416 *~;
#X obj 645 382 osc~ 0.01;
#X obj 710 394 osc~ 0.013;
#X obj 370 395 osc~ 0.03;
#X obj 437 394 osc~ 0.023;
#X obj 798 296 / 10000;
#X obj 799 91 random 10;
#X obj 799 112 sel 0;
#X obj 800 135 random 10000;
#X obj 802 156 int;
#X obj 802 179 / 10000;
#X obj 889 204 random 10;
#X obj 890 226 sel 0;
#X obj 891 249 random 10000;
#X obj 890 271 int;
#X obj 890 294 / 10000;
#X obj 886 81 random 10;
#X obj 887 102 sel 0;
#X obj 888 125 random 10000;
#X obj 889 148 int;
#X obj 889 172 / 10000;
#N canvas 0 22 450 300 (subpatch) 0;
#X array \$0-array 1000 float 0;
#X coords 0 1 999 -1 160 100 1 0 0;
#X restore 427 550 graph;
#X obj 427 660 table \$0-array2;
#X msg 252 608 start 0;
#X obj 278 541 tgl 15 0 empty empty empty 17 7 0 10 -262144 -1 -1 1
1;
#X obj 287 593 bng 15 250 50 0 empty empty empty 17 7 0 10 -262144
-1 -1;
#X obj 269 568 metro 50;
#X obj 229 644 tabwrite~ \$0-array;
#X obj 276 456 loadbang;
#X msg 277 492 1;
#X obj 712 431 *~ 0.3;
#X obj 640 455 *~ 0.3;
#X obj 437 426 *~ 0.3;
#X obj 558 389 *~ 0.3;
#X connect 1 0 4 0;
#X connect 2 0 1 0;
#X connect 3 0 5 0;
#X connect 4 0 3 0;
#X connect 4 1 23 0;
#X connect 5 0 6 0;
#X connect 6 0 15 0;
#X connect 7 0 10 0;
#X connect 8 0 7 0;
#X connect 9 0 11 0;
#X connect 10 0 9 0;
#X connect 10 1 22 0;
#X connect 11 0 12 0;
#X connect 12 0 16 0;
#X connect 13 0 2 0;
#X connect 13 0 8 0;
#X connect 13 0 20 0;
#X connect 13 0 24 0;
#X connect 13 0 37 0;
#X connect 13 0 42 0;
#X connect 13 0 47 0;
#X connect 15 0 28 0;
#X connect 15 0 29 0;
#X connect 16 0 30 0;
#X connect 16 0 31 0;
#X connect 17 0 13 0;
#X connect 18 0 17 0;
#X connect 19 0 18 0;
#X connect 20 0 17 1;
#X connect 22 0 9 1;
#X connect 23 0 3 1;
#X connect 24 0 25 0;
#X connect 25 0 26 0;
#X connect 26 0 22 1;
#X connect 26 0 23 1;
#X connect 26 0 27 0;
#X connect 27 0 20 1;
#X connect 27 0 36 0;
#X connect 28 0 0 0;
#X connect 28 0 58 0;
#X connect 29 0 0 1;
#X connect 29 0 58 0;
#X connect 30 0 0 0;
#X connect 30 0 58 0;
#X connect 31 0 0 1;
#X connect 31 0 58 0;
#X connect 32 0 62 0;
#X connect 33 0 61 0;
#X connect 34 0 63 0;
#X connect 35 0 64 0;
#X connect 36 0 34 0;
#X connect 37 0 38 0;
#X connect 38 0 39 0;
#X connect 39 0 40 0;
#X connect 40 0 41 0;
#X connect 41 0 35 0;
#X connect 42 0 43 0;
#X connect 43 0 44 0;
#X connect 44 0 45 0;
#X connect 45 0 46 0;
#X connect 46 0 32 0;
#X connect 47 0 48 0;
#X connect 48 0 49 0;
#X connect 49 0 50 0;
#X connect 50 0 51 0;
#X connect 51 0 33 0;
#X connect 54 0 58 0;
#X connect 55 0 57 0;
#X connect 57 0 54 0;
#X connect 57 0 56 0;
#X connect 59 0 60 0;
#X connect 60 0 55 0;
#X connect 61 0 31 1;
#X connect 62 0 30 1;
#X connect 63 0 28 1;
#X connect 64 0 29 1;
