#N canvas 204 27 1280 687 10;
#X declare -lib chaos;
#X floatatom 615 355 10 0 0 0 Y - -;
#X floatatom 497 366 10 0 0 0 X - -;
#X obj 502 324 martin;
#X obj 527 344 search-tools;
#X obj 615 375 expr ($f1 + 5) * 10;
#X floatatom 614 396 5 0 0 0 - - -;
#X obj 494 388 expr ($f1 + 5) * 10;
#X floatatom 494 407 5 0 0 0 - - -;
#X obj 613 416 mtof;
#X obj 493 426 mtof;
#X obj 525 490 dac~ 1 2;
#X msg 502 239 1;
#X obj 501 218 loadbang;
#X obj 502 303 metro;
#X obj 502 261 t i b;
#X obj 566 200 bng 15 250 50 0 empty empty empty 17 7 0 10 -262144
-1 -1;
#X obj 595 688 pddp/dsp;
#X obj 493 447 osc~;
#X obj 612 437 osc~;
#X obj 563 177 metro 4000;
#X msg 562 154 1;
#X obj 559 131 loadbang;
#X obj 619 155 random 8000;
#X text 493 720 Tiago Morais MOrgado: PureData Patches Collection:
;
#X obj 529 282 random 2500;
#X obj 703 259 random 10;
#X obj 702 281 sel 0;
#X obj 703 304 random 10000;
#X obj 701 328 int;
#X obj 496 467 *~;
#X obj 529 466 *~;
#X obj 613 457 *~;
#X obj 657 458 *~;
#X obj 655 415 osc~ 0.01;
#X obj 720 417 osc~ 0.013;
#X obj 355 449 osc~ 0.03;
#X obj 422 448 osc~ 0.023;
#X obj 699 351 / 10000;
#X obj 700 146 random 10;
#X obj 700 167 sel 0;
#X obj 701 190 random 10000;
#X obj 703 211 int;
#X obj 703 234 / 10000;
#X obj 790 261 random 10;
#X obj 791 283 sel 0;
#X obj 792 306 random 10000;
#X obj 791 328 int;
#X obj 791 351 / 10000;
#X obj 787 138 random 10;
#X obj 788 159 sel 0;
#X obj 789 182 random 10000;
#X obj 790 205 int;
#X obj 790 229 / 10000;
#N canvas 0 22 450 300 (subpatch) 0;
#X array \$0-array 1000 float 0;
#X coords 0 1 999 -1 160 100 1 0 0;
#X restore 397 520 graph;
#X obj 397 630 table \$0-array2;
#X msg 222 578 start 0;
#X obj 248 511 tgl 15 0 empty empty empty 17 7 0 10 -262144 -1 -1 1
1;
#X obj 257 563 bng 15 250 50 0 empty empty empty 17 7 0 10 -262144
-1 -1;
#X obj 239 538 metro 50;
#X obj 199 614 tabwrite~ \$0-array;
#X obj 351 466 *~ 0.1;
#X obj 422 466 *~ 0.1;
#X obj 658 438 *~ 0.1;
#X obj 729 438 *~ 0.1;
#X connect 0 0 4 0;
#X connect 1 0 6 0;
#X connect 2 0 1 0;
#X connect 2 1 0 0;
#X connect 2 2 3 0;
#X connect 2 3 3 1;
#X connect 2 4 3 2;
#X connect 3 0 2 0;
#X connect 4 0 5 0;
#X connect 5 0 8 0;
#X connect 6 0 7 0;
#X connect 7 0 9 0;
#X connect 8 0 18 0;
#X connect 9 0 17 0;
#X connect 11 0 14 0;
#X connect 12 0 11 0;
#X connect 13 0 2 0;
#X connect 14 0 13 0;
#X connect 14 1 24 0;
#X connect 15 0 12 0;
#X connect 15 0 22 0;
#X connect 15 0 25 0;
#X connect 15 0 38 0;
#X connect 15 0 43 0;
#X connect 15 0 48 0;
#X connect 17 0 29 0;
#X connect 17 0 30 0;
#X connect 18 0 31 0;
#X connect 18 0 32 0;
#X connect 19 0 15 0;
#X connect 20 0 19 0;
#X connect 20 0 56 0;
#X connect 21 0 20 0;
#X connect 22 0 19 1;
#X connect 24 0 13 1;
#X connect 25 0 26 0;
#X connect 26 0 27 0;
#X connect 27 0 24 1;
#X connect 27 0 28 0;
#X connect 28 0 22 1;
#X connect 28 0 37 0;
#X connect 29 0 10 0;
#X connect 29 0 59 0;
#X connect 30 0 10 1;
#X connect 30 0 59 0;
#X connect 31 0 10 0;
#X connect 31 0 59 0;
#X connect 32 0 10 1;
#X connect 32 0 59 0;
#X connect 33 0 62 0;
#X connect 34 0 63 0;
#X connect 35 0 60 0;
#X connect 36 0 61 0;
#X connect 37 0 35 0;
#X connect 38 0 39 0;
#X connect 39 0 40 0;
#X connect 40 0 41 0;
#X connect 41 0 42 0;
#X connect 42 0 36 0;
#X connect 43 0 44 0;
#X connect 44 0 45 0;
#X connect 45 0 46 0;
#X connect 46 0 47 0;
#X connect 47 0 33 0;
#X connect 48 0 49 0;
#X connect 49 0 50 0;
#X connect 50 0 51 0;
#X connect 51 0 52 0;
#X connect 52 0 34 0;
#X connect 55 0 59 0;
#X connect 56 0 58 0;
#X connect 58 0 55 0;
#X connect 58 0 57 0;
#X connect 60 0 29 1;
#X connect 61 0 30 1;
#X connect 62 0 31 1;
#X connect 63 0 32 1;
