#N canvas 498 23 1280 687 10;
#X obj 38 101 metro 100;
#X obj 110 55 sel 1;
#X obj 103 102 + 1;
#X msg 31 166 0;
#X msg 62 166 2;
#X msg 98 165 4;
#X msg 135 166 6;
#X obj 36 145 sel 1 2 3 4;
#X obj 36 124 counter 1 4;
#X obj 108 77 random 4;
#X obj 41 73 tgl 15 0 empty empty empty 17 7 0 10 -262144 -1 -1 1 1
;
#X floatatom 42 189 5 0 0 0 - - -;
#X obj 43 208 t b i;
#X obj 43 230 random 3;
#X obj 41 250 * 12;
#X obj 40 273 + 48;
#X floatatom 42 295 5 0 0 0 - - -;
#X floatatom 118 301 5 0 0 0 - - -;
#X obj 72 320 +;
#X obj 72 365 osc~;
#X obj 71 343 mtof;
#X obj 75 412 dac~ 1 2;
#X obj 74 388 *~ 0.3;
#X obj 179 101 metro 100;
#X obj 252 55 sel 1;
#X obj 245 102 + 1;
#X msg 172 166 0;
#X msg 203 166 2;
#X msg 239 165 4;
#X msg 276 166 6;
#X obj 177 145 sel 1 2 3 4;
#X obj 177 124 counter 1 4;
#X obj 250 77 random 4;
#X obj 182 73 tgl 15 0 empty empty empty 17 7 0 10 -262144 -1 -1 1
1;
#X floatatom 183 189 5 0 0 0 - - -;
#X obj 184 208 t b i;
#X obj 184 230 random 3;
#X obj 182 250 * 12;
#X obj 181 273 + 48;
#X floatatom 183 295 5 0 0 0 - - -;
#X floatatom 259 301 5 0 0 0 - - -;
#X obj 213 320 +;
#X obj 213 365 osc~;
#X obj 212 343 mtof;
#X obj 215 388 *~ 0.3;
#X obj 172 50 tgl 15 0 empty empty empty 17 7 0 10 -262144 -1 -1 1
1;
#X obj 27 23 random 200;
#X obj 213 25 random 200;
#X obj 75 437 pddp/dsp;
#N canvas 0 22 450 300 (subpatch) 0;
#X array \$0-array 1000 float 0;
#X coords 0 1 999 -1 160 100 1 0 0;
#X restore 357 475 graph;
#X obj 357 585 table \$0-array2;
#X msg 182 533 start 0;
#X obj 208 466 tgl 15 0 empty empty empty 17 7 0 10 -262144 -1 -1 1
1;
#X obj 217 518 bng 15 250 50 0 empty empty empty 17 7 0 10 -262144
-1 -1;
#X obj 199 493 metro 50;
#X msg 150 14 1;
#X obj 350 45 loadbang;
#X obj 159 569 tabwrite~ \$0-array;
#X connect 0 0 8 0;
#X connect 1 0 9 0;
#X connect 1 0 46 0;
#X connect 2 0 8 4;
#X connect 3 0 11 0;
#X connect 4 0 11 0;
#X connect 5 0 11 0;
#X connect 6 0 11 0;
#X connect 7 0 3 0;
#X connect 7 1 4 0;
#X connect 7 2 5 0;
#X connect 7 3 6 0;
#X connect 8 0 1 0;
#X connect 8 0 7 0;
#X connect 9 0 2 0;
#X connect 10 0 0 0;
#X connect 11 0 12 0;
#X connect 12 0 13 0;
#X connect 12 1 17 0;
#X connect 13 0 14 0;
#X connect 14 0 15 0;
#X connect 15 0 16 0;
#X connect 16 0 18 0;
#X connect 17 0 18 1;
#X connect 18 0 20 0;
#X connect 19 0 22 0;
#X connect 20 0 19 0;
#X connect 22 0 21 0;
#X connect 22 0 57 0;
#X connect 23 0 31 0;
#X connect 24 0 32 0;
#X connect 24 0 47 0;
#X connect 25 0 31 4;
#X connect 26 0 34 0;
#X connect 27 0 34 0;
#X connect 28 0 34 0;
#X connect 29 0 34 0;
#X connect 30 0 26 0;
#X connect 30 1 27 0;
#X connect 30 2 28 0;
#X connect 30 3 29 0;
#X connect 31 0 24 0;
#X connect 31 0 30 0;
#X connect 32 0 25 0;
#X connect 33 0 23 0;
#X connect 34 0 35 0;
#X connect 35 0 36 0;
#X connect 35 1 40 0;
#X connect 36 0 37 0;
#X connect 37 0 38 0;
#X connect 38 0 39 0;
#X connect 39 0 41 0;
#X connect 40 0 41 1;
#X connect 41 0 43 0;
#X connect 42 0 44 0;
#X connect 43 0 42 0;
#X connect 44 0 21 1;
#X connect 44 0 57 0;
#X connect 45 0 10 0;
#X connect 45 0 33 0;
#X connect 46 0 0 1;
#X connect 47 0 23 1;
#X connect 51 0 57 0;
#X connect 52 0 54 0;
#X connect 54 0 51 0;
#X connect 54 0 53 0;
#X connect 55 0 45 0;
#X connect 55 0 52 0;
#X connect 56 0 55 0;
