#N canvas 0 23 1280 687 10;
#X declare -lib chaos;
#X obj 48 111 metro 100;
#X obj 120 65 sel 1;
#X obj 113 112 + 1;
#X msg 41 176 0;
#X msg 72 176 2;
#X msg 108 175 4;
#X msg 145 176 6;
#X obj 46 155 sel 1 2 3 4;
#X obj 46 134 counter 1 4;
#X obj 118 87 random 4;
#X obj 51 83 tgl 15 0 empty empty empty 17 7 0 10 -262144 -1 -1 1 1
;
#X floatatom 52 199 5 0 0 0 - - -;
#X obj 53 218 t b i;
#X obj 53 240 random 3;
#X obj 51 260 * 12;
#X obj 50 283 + 48;
#X floatatom 52 305 5 0 0 0 - - -;
#X floatatom 128 311 5 0 0 0 - - -;
#X obj 82 330 +;
#X obj 82 375 osc~;
#X obj 81 353 mtof;
#X obj 85 422 dac~ 1 2;
#X obj 189 111 metro 100;
#X obj 262 65 sel 1;
#X obj 255 112 + 1;
#X msg 182 176 0;
#X msg 213 176 2;
#X msg 249 175 4;
#X msg 286 176 6;
#X obj 187 155 sel 1 2 3 4;
#X obj 187 134 counter 1 4;
#X obj 260 87 random 4;
#X obj 192 83 tgl 15 0 empty empty empty 17 7 0 10 -262144 -1 -1 1
1;
#X floatatom 193 199 5 0 0 0 - - -;
#X obj 194 218 t b i;
#X obj 194 240 random 3;
#X obj 192 260 * 12;
#X obj 191 283 + 48;
#X floatatom 193 305 5 0 0 0 - - -;
#X floatatom 269 311 5 0 0 0 - - -;
#X obj 223 330 +;
#X obj 223 375 osc~;
#X obj 222 353 mtof;
#X obj 182 60 tgl 15 0 empty empty empty 17 7 0 10 -262144 -1 -1 1
1;
#X obj 37 33 random 200;
#X obj 223 35 random 200;
#X obj 85 447 pddp/dsp;
#X floatatom 529 266 10 0 0 0 Y - -;
#X floatatom 411 277 10 0 0 0 X - -;
#X obj 416 235 martin;
#X obj 441 255 search-tools;
#X obj 529 286 expr ($f1 + 5) * 10;
#X floatatom 528 307 5 0 0 0 - - -;
#X obj 408 299 expr ($f1 + 5) * 10;
#X floatatom 408 318 5 0 0 0 - - -;
#X obj 527 327 mtof;
#X obj 407 337 mtof;
#X obj 439 401 dac~ 1 2;
#X msg 416 150 1;
#X obj 415 129 loadbang;
#X obj 416 214 metro;
#X obj 416 172 t i b;
#X obj 480 111 bng 15 250 50 0 empty empty empty 17 7 0 10 -262144
-1 -1;
#X obj 407 358 osc~;
#X obj 526 348 osc~;
#X obj 477 88 metro 4000;
#X msg 476 65 1;
#X obj 473 42 loadbang;
#X obj 533 66 random 8000;
#X obj 443 193 random 2500;
#X obj 617 170 random 10;
#X obj 616 192 sel 0;
#X obj 617 215 random 10000;
#X obj 615 239 int;
#X obj 410 378 *~;
#X obj 443 377 *~;
#X obj 529 374 *~;
#X obj 571 369 *~;
#X obj 569 326 osc~ 0.01;
#X obj 634 328 osc~ 0.013;
#X obj 269 360 osc~ 0.03;
#X obj 336 359 osc~ 0.023;
#X obj 613 262 / 10000;
#X obj 614 57 random 10;
#X obj 614 78 sel 0;
#X obj 615 101 random 10000;
#X obj 617 122 int;
#X obj 617 145 / 10000;
#X obj 704 172 random 10;
#X obj 705 194 sel 0;
#X obj 706 217 random 10000;
#X obj 705 239 int;
#X obj 705 262 / 10000;
#X obj 701 49 random 10;
#X obj 702 70 sel 0;
#X obj 703 93 random 10000;
#X obj 704 116 int;
#X obj 704 140 / 10000;
#N canvas 0 22 450 300 (subpatch) 0;
#X array \$0-array 1000 float 0;
#X coords 0 1 999 -1 160 100 1 0 0;
#X restore 446 482 graph;
#X obj 96 573 tabwrite~ \$0-array;
#X obj 461 585 table \$0-array2;
#X msg 172 523 start 0;
#X obj 198 456 tgl 15 0 empty empty empty 17 7 0 10 -262144 -1 -1 1
1;
#X obj 207 508 bng 15 250 50 0 empty empty empty 17 7 0 10 -262144
-1 -1;
#X obj 189 483 metro 50;
#X obj 326 474 pddp/dsp;
#X obj 84 398 *~ 0.1;
#X obj 225 398 *~ 0.1;
#X obj 336 377 *~ 0.01;
#X obj 265 377 *~ 0.01;
#X obj 572 349 *~ 0.01;
#X obj 643 349 *~ 0.01;
#X connect 0 0 8 0;
#X connect 1 0 9 0;
#X connect 1 0 44 0;
#X connect 2 0 8 4;
#X connect 3 0 11 0;
#X connect 4 0 11 0;
#X connect 5 0 11 0;
#X connect 6 0 11 0;
#X connect 7 0 3 0;
#X connect 7 1 4 0;
#X connect 7 2 5 0;
#X connect 7 3 6 0;
#X connect 8 0 1 0;
#X connect 8 0 7 0;
#X connect 9 0 2 0;
#X connect 10 0 0 0;
#X connect 11 0 12 0;
#X connect 12 0 13 0;
#X connect 12 1 17 0;
#X connect 13 0 14 0;
#X connect 14 0 15 0;
#X connect 15 0 16 0;
#X connect 16 0 18 0;
#X connect 17 0 18 1;
#X connect 18 0 20 0;
#X connect 19 0 106 0;
#X connect 20 0 19 0;
#X connect 22 0 30 0;
#X connect 23 0 31 0;
#X connect 23 0 45 0;
#X connect 24 0 30 4;
#X connect 25 0 33 0;
#X connect 26 0 33 0;
#X connect 27 0 33 0;
#X connect 28 0 33 0;
#X connect 29 0 25 0;
#X connect 29 1 26 0;
#X connect 29 2 27 0;
#X connect 29 3 28 0;
#X connect 30 0 23 0;
#X connect 30 0 29 0;
#X connect 31 0 24 0;
#X connect 32 0 22 0;
#X connect 33 0 34 0;
#X connect 34 0 35 0;
#X connect 34 1 39 0;
#X connect 35 0 36 0;
#X connect 36 0 37 0;
#X connect 37 0 38 0;
#X connect 38 0 40 0;
#X connect 39 0 40 1;
#X connect 40 0 42 0;
#X connect 41 0 99 0;
#X connect 41 0 107 0;
#X connect 42 0 41 0;
#X connect 43 0 10 0;
#X connect 43 0 32 0;
#X connect 44 0 0 1;
#X connect 45 0 22 1;
#X connect 47 0 51 0;
#X connect 48 0 53 0;
#X connect 49 0 48 0;
#X connect 49 1 47 0;
#X connect 49 2 50 0;
#X connect 49 3 50 1;
#X connect 49 4 50 2;
#X connect 50 0 49 0;
#X connect 51 0 52 0;
#X connect 52 0 55 0;
#X connect 53 0 54 0;
#X connect 54 0 56 0;
#X connect 55 0 64 0;
#X connect 56 0 63 0;
#X connect 58 0 61 0;
#X connect 59 0 58 0;
#X connect 60 0 49 0;
#X connect 61 0 60 0;
#X connect 61 1 69 0;
#X connect 62 0 59 0;
#X connect 62 0 68 0;
#X connect 62 0 70 0;
#X connect 62 0 83 0;
#X connect 62 0 88 0;
#X connect 62 0 93 0;
#X connect 63 0 74 0;
#X connect 63 0 75 0;
#X connect 64 0 76 0;
#X connect 64 0 77 0;
#X connect 65 0 62 0;
#X connect 66 0 65 0;
#X connect 66 0 43 0;
#X connect 66 0 102 0;
#X connect 67 0 66 0;
#X connect 68 0 65 1;
#X connect 69 0 60 1;
#X connect 70 0 71 0;
#X connect 71 0 72 0;
#X connect 72 0 69 1;
#X connect 72 0 73 0;
#X connect 73 0 68 1;
#X connect 73 0 82 0;
#X connect 74 0 57 0;
#X connect 75 0 57 1;
#X connect 76 0 57 0;
#X connect 77 0 57 1;
#X connect 78 0 110 0;
#X connect 79 0 111 0;
#X connect 80 0 109 0;
#X connect 81 0 108 0;
#X connect 82 0 80 0;
#X connect 83 0 84 0;
#X connect 84 0 85 0;
#X connect 85 0 86 0;
#X connect 86 0 87 0;
#X connect 87 0 81 0;
#X connect 88 0 89 0;
#X connect 89 0 90 0;
#X connect 90 0 91 0;
#X connect 91 0 92 0;
#X connect 92 0 78 0;
#X connect 93 0 94 0;
#X connect 94 0 95 0;
#X connect 95 0 96 0;
#X connect 96 0 97 0;
#X connect 97 0 79 0;
#X connect 101 0 99 0;
#X connect 102 0 104 0;
#X connect 104 0 101 0;
#X connect 104 0 103 0;
#X connect 106 0 21 0;
#X connect 106 0 99 0;
#X connect 107 0 21 1;
#X connect 108 0 75 1;
#X connect 109 0 74 1;
#X connect 110 0 76 1;
#X connect 111 0 77 1;
