#N canvas 260 23 1280 687 10;
#X obj 344 -74 dac~ 1 2;
#X obj 330 -131 osc~ 33;
#X obj 403 -130 osc~ 99;
#X obj 253 -98 *~ 1000;
#X obj 488 -85 *~ 1000;
#X obj 207 -121 osc~ 0.33;
#X obj 493 -136 osc~ 0.99;
#X obj 202 -185 osc~ 0.01;
#X obj 204 -157 *~ 1000;
#X obj 201 -237 osc~ 0.01;
#X obj 291 -233 osc~ 0.012;
#X obj 194 -208 *~;
#X obj 398 -106 *~;
#X obj 438 -212 pddp/dsp;
#X obj 1037 -353 random 10;
#X obj 1038 -331 sel 0;
#X obj 1039 -308 random 10000;
#X obj 1038 -286 int;
#X obj 1038 -263 / 10000;
#X obj 1034 -476 random 10;
#X obj 1035 -455 sel 0;
#X obj 1036 -432 random 10000;
#X obj 1037 -409 int;
#X obj 1037 -385 / 10000;
#X obj 333 -97 *~;
#X connect 1 0 24 0;
#X connect 2 0 12 0;
#X connect 2 0 24 1;
#X connect 3 0 2 0;
#X connect 4 0 1 0;
#X connect 5 0 3 0;
#X connect 5 0 6 0;
#X connect 5 0 24 0;
#X connect 5 0 24 1;
#X connect 6 0 4 0;
#X connect 6 0 12 0;
#X connect 6 0 12 1;
#X connect 6 0 3 0;
#X connect 7 0 8 0;
#X connect 7 0 3 0;
#X connect 7 0 24 1;
#X connect 8 0 5 0;
#X connect 8 0 6 0;
#X connect 8 0 1 0;
#X connect 9 0 11 0;
#X connect 9 0 11 1;
#X connect 9 0 6 0;
#X connect 9 0 3 0;
#X connect 9 0 24 1;
#X connect 9 0 4 0;
#X connect 9 0 2 0;
#X connect 10 0 9 0;
#X connect 10 0 11 0;
#X connect 10 0 3 0;
#X connect 10 0 4 0;
#X connect 10 0 6 0;
#X connect 11 0 7 0;
#X connect 11 0 4 0;
#X connect 11 0 3 0;
#X connect 11 0 12 0;
#X connect 11 0 12 1;
#X connect 11 0 24 0;
#X connect 12 0 0 1;
#X connect 12 0 4 0;
#X connect 14 0 15 0;
#X connect 15 0 16 0;
#X connect 16 0 17 0;
#X connect 17 0 18 0;
#X connect 19 0 20 0;
#X connect 20 0 21 0;
#X connect 21 0 22 0;
#X connect 22 0 23 0;
#X connect 24 0 0 0;
